# xmcd
#
# Track frame offsets: 
#        150
#        20006
#        39455
#        53911
#        73419
#        93195
#        115443
#        136485
#        160240
#        180591
#        207383
#        228156
#        245573
#        260592
#        280274
#        305051
#        326466
#
# Disc length: 4629 seconds
#
# Revision: 0
# Processed by: cddbd v1.5PL3 Copyright (c) Steve Scherf et al.
# Submitted via: ExactAudioCopy v0.95a5
#
DISCID=fd121311
DTITLE=周惠 - 永远(wl Edit)
DYEAR=1999
DGENRE=Pop
TTITLE0=伤心的理由
TTITLE1=永远
TTITLE2=爱在不在
TTITLE3=深情绵绵
TTITLE4=爱情无关事非
TTITLE5=寂寞城市
TTITLE6=体温
TTITLE7=情雪
TTITLE8=流域
TTITLE9=最真的期待
TTITLE10=我喜欢
TTITLE11=我要你的爱
TTITLE12=预言
TTITLE13=约定
TTITLE14=不了情
TTITLE15=讨厌自己
TTITLE16=有多少爱可以重来
EXTD=
EXTT0=
EXTT1=
EXTT2=
EXTT3=
EXTT4=
EXTT5=
EXTT6=
EXTT7=
EXTT8=
EXTT9=
EXTT10=
EXTT11=
EXTT12=
EXTT13=
EXTT14=
EXTT15=
EXTT16=
PLAYORDER=
